<svg width="126" height="109" viewBox="0 0 126 109" fill="none" xmlns="http://www.w3.org/2000/svg">
<g filter="url(#filter0_dddddd_1070_133)">
<path d="M108.23 45.4716C108.812 44.5547 108.479 43.3008 107.486 42.6728L67.435 17.3303C66.445 16.704 65.1732 16.937 64.5925 17.8513L41.2452 54.6068C40.8765 55.1873 40.0031 55.2141 39.5173 54.6576C38.598 53.6049 37.5176 52.6923 36.3185 51.956C30.4006 48.3155 22.7923 49.6837 19.2319 55.0317C15.4953 60.6443 17.4946 68.4378 23.6207 72.3291C29.5355 76.0862 37.1057 74.8125 40.7641 69.5288C40.8629 69.4158 40.9526 69.2955 41.0325 69.1687L57.3673 43.4529C57.9489 42.5373 59.223 42.3049 60.2132 42.9339L87.342 60.1663C88.3323 60.7953 88.6635 62.0473 88.0819 62.9629L82.6592 71.4999C82.2908 72.0798 81.4186 72.1074 80.9324 71.5521C80.0126 70.502 78.9324 69.592 77.7342 68.8579C71.817 65.2264 64.2174 66.5981 60.66 71.9422C56.9239 77.5545 58.9234 85.3478 65.0492 89.2389C71.101 93.0831 78.8885 91.6631 82.443 86.0673C82.4753 86.0164 82.5039 85.964 82.5354 85.9127C82.5586 85.8791 82.5831 85.8467 82.6052 85.8119L108.23 45.4716ZM92.4454 54.041L63.5887 35.7111C63.3424 35.5546 63.1636 35.314 63.0917 35.0422C63.0198 34.7705 63.0607 34.4898 63.2054 34.262L67.3045 27.8089C67.3762 27.6959 67.4713 27.5994 67.5843 27.5248C67.6974 27.4502 67.8261 27.399 67.9632 27.3742C68.1003 27.3493 68.2431 27.3512 68.3833 27.3798C68.5236 27.4085 68.6586 27.4632 68.7806 27.541L97.6101 45.9137C97.8559 46.0704 98.0342 46.3109 98.1058 46.5824C98.1774 46.8539 98.1364 47.1342 97.9918 47.3617L93.92 53.772C93.8484 53.8848 93.7534 53.9812 93.6405 54.0558C93.5277 54.1304 93.3991 54.1816 93.2621 54.2066C93.1252 54.2316 92.9826 54.2298 92.8425 54.2014C92.7023 54.173 92.5674 54.1184 92.4454 54.041Z" fill="white"/>
</g>
<defs>
<filter id="filter0_dddddd_1070_133" x="0.560017" y="0.190144" width="124.743" height="107.995" filterUnits="userSpaceOnUse" color-interpolation-filters="sRGB">
<feFlood flood-opacity="0" result="BackgroundImageFix"/>
<feColorMatrix in="SourceAlpha" type="matrix" values="0 0 0 0 0 0 0 0 0 0 0 0 0 0 0 0 0 0 127 0" result="hardAlpha"/>
<feOffset/>
<feGaussianBlur stdDeviation="0.199838"/>
<feColorMatrix type="matrix" values="0 0 0 0 1 0 0 0 0 1 0 0 0 0 1 0 0 0 1 0"/>
<feBlend mode="normal" in2="BackgroundImageFix" result="effect1_dropShadow_1070_133"/>
<feColorMatrix in="SourceAlpha" type="matrix" values="0 0 0 0 0 0 0 0 0 0 0 0 0 0 0 0 0 0 127 0" result="hardAlpha"/>
<feOffset/>
<feGaussianBlur stdDeviation="0.399677"/>
<feColorMatrix type="matrix" values="0 0 0 0 1 0 0 0 0 1 0 0 0 0 1 0 0 0 1 0"/>
<feBlend mode="normal" in2="effect1_dropShadow_1070_133" result="effect2_dropShadow_1070_133"/>
<feColorMatrix in="SourceAlpha" type="matrix" values="0 0 0 0 0 0 0 0 0 0 0 0 0 0 0 0 0 0 127 0" result="hardAlpha"/>
<feOffset/>
<feGaussianBlur stdDeviation="1.39887"/>
<feColorMatrix type="matrix" values="0 0 0 0 1 0 0 0 0 1 0 0 0 0 1 0 0 0 1 0"/>
<feBlend mode="normal" in2="effect2_dropShadow_1070_133" result="effect3_dropShadow_1070_133"/>
<feColorMatrix in="SourceAlpha" type="matrix" values="0 0 0 0 0 0 0 0 0 0 0 0 0 0 0 0 0 0 127 0" result="hardAlpha"/>
<feOffset/>
<feGaussianBlur stdDeviation="2.79774"/>
<feColorMatrix type="matrix" values="0 0 0 0 1 0 0 0 0 1 0 0 0 0 1 0 0 0 1 0"/>
<feBlend mode="normal" in2="effect3_dropShadow_1070_133" result="effect4_dropShadow_1070_133"/>
<feColorMatrix in="SourceAlpha" type="matrix" values="0 0 0 0 0 0 0 0 0 0 0 0 0 0 0 0 0 0 127 0" result="hardAlpha"/>
<feOffset/>
<feGaussianBlur stdDeviation="4.79612"/>
<feColorMatrix type="matrix" values="0 0 0 0 1 0 0 0 0 1 0 0 0 0 1 0 0 0 1 0"/>
<feBlend mode="normal" in2="effect4_dropShadow_1070_133" result="effect5_dropShadow_1070_133"/>
<feColorMatrix in="SourceAlpha" type="matrix" values="0 0 0 0 0 0 0 0 0 0 0 0 0 0 0 0 0 0 127 0" result="hardAlpha"/>
<feOffset/>
<feGaussianBlur stdDeviation="8.39321"/>
<feColorMatrix type="matrix" values="0 0 0 0 1 0 0 0 0 1 0 0 0 0 1 0 0 0 1 0"/>
<feBlend mode="normal" in2="effect5_dropShadow_1070_133" result="effect6_dropShadow_1070_133"/>
<feBlend mode="normal" in="SourceGraphic" in2="effect6_dropShadow_1070_133" result="shape"/>
</filter>
</defs>
</svg>
