<svg width="151" height="132" viewBox="0 0 151 132" fill="none" xmlns="http://www.w3.org/2000/svg">
<g filter="url(#filter0_dddddd_1070_131)">
<path d="M129.767 53.5653C130.427 52.4231 129.959 50.919 128.722 50.208L78.8302 21.5193C77.5971 20.8103 76.0661 21.1584 75.4084 22.2974L48.9712 68.0881C48.5536 68.8113 47.4954 68.8888 46.8775 68.2385C45.7081 67.0085 44.3505 65.957 42.858 65.1252C35.4914 61.0124 26.3313 63.0631 22.2864 69.7342C18.0414 76.7352 20.8673 86.0876 28.4992 90.4939C35.868 94.7483 44.9868 92.8142 49.1538 86.2163C49.2679 86.0741 49.3705 85.9235 49.4609 85.7656L67.9577 53.7283C68.6163 52.5876 70.15 52.2403 71.3837 52.9526L105.181 72.4656C106.415 73.1779 106.881 74.6798 106.223 75.8205L100.082 86.456C99.665 87.1785 98.6082 87.2567 97.9898 86.608C96.8201 85.3813 95.4628 84.3328 93.9714 83.5036C86.6063 79.4018 77.4568 81.4562 73.4154 88.1224C69.171 95.1231 71.997 104.475 79.6286 108.881C87.1681 113.234 96.543 111.112 100.568 104.14C100.605 104.077 100.636 104.012 100.672 103.948C100.698 103.906 100.727 103.866 100.752 103.822L129.767 53.5653ZM111.058 64.7723L75.1079 44.0164C74.801 43.8392 74.5717 43.5565 74.4705 43.2305C74.3694 42.9045 74.4046 42.5619 74.5684 42.2781L79.21 34.2386C79.2913 34.098 79.4017 33.976 79.535 33.8797C79.6683 33.7834 79.8219 33.7147 79.9869 33.6774C80.152 33.6402 80.3253 33.6352 80.4969 33.6627C80.6685 33.6902 80.8351 33.7497 80.9871 33.8378L116.907 54.6471C117.213 54.8245 117.441 55.1072 117.542 55.4328C117.643 55.7585 117.608 56.1007 117.444 56.3842L112.833 64.3702C112.752 64.5108 112.642 64.6326 112.509 64.7289C112.376 64.8252 112.222 64.894 112.058 64.9313C111.893 64.9686 111.72 64.9738 111.548 64.9465C111.377 64.9192 111.21 64.86 111.058 64.7723Z" fill="white"/>
</g>
<defs>
<filter id="filter0_dddddd_1070_131" x="0.102509" y="0.942108" width="150.17" height="130.405" filterUnits="userSpaceOnUse" color-interpolation-filters="sRGB">
<feFlood flood-opacity="0" result="BackgroundImageFix"/>
<feColorMatrix in="SourceAlpha" type="matrix" values="0 0 0 0 0 0 0 0 0 0 0 0 0 0 0 0 0 0 127 0" result="hardAlpha"/>
<feOffset/>
<feGaussianBlur stdDeviation="0.240552"/>
<feColorMatrix type="matrix" values="0 0 0 0 1 0 0 0 0 1 0 0 0 0 1 0 0 0 1 0"/>
<feBlend mode="normal" in2="BackgroundImageFix" result="effect1_dropShadow_1070_131"/>
<feColorMatrix in="SourceAlpha" type="matrix" values="0 0 0 0 0 0 0 0 0 0 0 0 0 0 0 0 0 0 127 0" result="hardAlpha"/>
<feOffset/>
<feGaussianBlur stdDeviation="0.481103"/>
<feColorMatrix type="matrix" values="0 0 0 0 1 0 0 0 0 1 0 0 0 0 1 0 0 0 1 0"/>
<feBlend mode="normal" in2="effect1_dropShadow_1070_131" result="effect2_dropShadow_1070_131"/>
<feColorMatrix in="SourceAlpha" type="matrix" values="0 0 0 0 0 0 0 0 0 0 0 0 0 0 0 0 0 0 127 0" result="hardAlpha"/>
<feOffset/>
<feGaussianBlur stdDeviation="1.68386"/>
<feColorMatrix type="matrix" values="0 0 0 0 1 0 0 0 0 1 0 0 0 0 1 0 0 0 1 0"/>
<feBlend mode="normal" in2="effect2_dropShadow_1070_131" result="effect3_dropShadow_1070_131"/>
<feColorMatrix in="SourceAlpha" type="matrix" values="0 0 0 0 0 0 0 0 0 0 0 0 0 0 0 0 0 0 127 0" result="hardAlpha"/>
<feOffset/>
<feGaussianBlur stdDeviation="3.36772"/>
<feColorMatrix type="matrix" values="0 0 0 0 1 0 0 0 0 1 0 0 0 0 1 0 0 0 1 0"/>
<feBlend mode="normal" in2="effect3_dropShadow_1070_131" result="effect4_dropShadow_1070_131"/>
<feColorMatrix in="SourceAlpha" type="matrix" values="0 0 0 0 0 0 0 0 0 0 0 0 0 0 0 0 0 0 127 0" result="hardAlpha"/>
<feOffset/>
<feGaussianBlur stdDeviation="5.77324"/>
<feColorMatrix type="matrix" values="0 0 0 0 1 0 0 0 0 1 0 0 0 0 1 0 0 0 1 0"/>
<feBlend mode="normal" in2="effect4_dropShadow_1070_131" result="effect5_dropShadow_1070_131"/>
<feColorMatrix in="SourceAlpha" type="matrix" values="0 0 0 0 0 0 0 0 0 0 0 0 0 0 0 0 0 0 127 0" result="hardAlpha"/>
<feOffset/>
<feGaussianBlur stdDeviation="10.1032"/>
<feColorMatrix type="matrix" values="0 0 0 0 1 0 0 0 0 1 0 0 0 0 1 0 0 0 1 0"/>
<feBlend mode="normal" in2="effect5_dropShadow_1070_131" result="effect6_dropShadow_1070_131"/>
<feBlend mode="normal" in="SourceGraphic" in2="effect6_dropShadow_1070_131" result="shape"/>
</filter>
</defs>
</svg>
